<svg width="61" height="60" viewBox="0 0 61 60" fill="none" xmlns="http://www.w3.org/2000/svg">
<rect x="0.272705" width="60" height="60" rx="10" fill="#383E45"/>
<g clip-path="url(#clip0_190_2041)">
<path d="M12.2727 43.3581C12.2727 45.922 14.351 48 16.9146 48H43.6307C46.1947 48 48.2727 45.9217 48.2727 43.3581V16.642C48.2727 14.078 46.1944 12 43.6308 12H16.9147C14.3507 12 12.2727 14.0783 12.2727 16.6419V43.358V43.3581Z" fill="#563D7C"/>
<path d="M27.2011 27.9241V22.826H31.6886C32.1161 22.826 32.5281 22.8616 32.925 22.9329C33.3218 23.004 33.673 23.1312 33.9783 23.3144C34.2834 23.4976 34.5277 23.752 34.7109 24.0776C34.894 24.4033 34.9857 24.8205 34.9857 25.3291C34.9857 26.245 34.7109 26.9065 34.1614 27.3135C33.6119 27.7206 32.9098 27.9241 32.0549 27.9241H27.2011ZM22.4082 19.1016V40.8984H32.9708C33.9478 40.8984 34.8992 40.7764 35.8252 40.5321C36.7513 40.2878 37.5755 39.9114 38.298 39.4026C39.0204 38.8938 39.5954 38.2374 40.0228 37.4336C40.4503 36.6296 40.6639 35.6782 40.6639 34.5792C40.6639 33.2155 40.3331 32.0505 39.6718 31.0838C39.0103 30.117 38.0079 29.4403 36.6646 29.0536C37.6416 28.5856 38.3794 27.9851 38.8781 27.2525C39.3766 26.5198 39.6259 25.6041 39.6259 24.5049C39.6259 23.4874 39.458 22.6327 39.1222 21.9406C38.7864 21.2488 38.3132 20.6941 37.7026 20.2769C37.0921 19.8597 36.3595 19.5594 35.5046 19.3763C34.6499 19.1931 33.7035 19.1016 32.6655 19.1016H22.4082ZM27.2011 37.174V31.1905H32.4213C33.4592 31.1905 34.2937 31.4296 34.9247 31.908C35.5555 32.3863 35.8711 33.185 35.8711 34.3044C35.8711 34.8743 35.7743 35.3423 35.581 35.7087C35.3876 36.075 35.1282 36.3651 34.8025 36.5787C34.4769 36.7925 34.1003 36.9451 33.673 37.0367C33.2455 37.1281 32.7979 37.174 32.3297 37.174H27.2011Z" fill="white"/>
</g>
<defs>
<clipPath id="clip0_190_2041">
<rect width="36" height="36" fill="white" transform="translate(12.2727 12)"/>
</clipPath>
</defs>
</svg>
