<svg width="61" height="60" viewBox="0 0 61 60" fill="none" xmlns="http://www.w3.org/2000/svg">
<rect x="0.818115" width="60" height="60" rx="10" fill="#383E45"/>
<path d="M19.4579 42.6011L16.9312 14.25H44.7052L42.175 42.5966L30.8013 45.75L19.4579 42.6011Z" fill="#1572B6"/>
<path d="M30.8181 43.3403L40.0094 40.7921L42.1716 16.5686H30.8181V43.3403Z" fill="#33A9DC"/>
<path d="M30.8181 26.8399H35.4194L35.7366 23.2793H30.8181V19.8019H39.5369L39.4536 20.7345L38.5997 30.3173H30.8181V26.8399Z" fill="white"/>
<path d="M30.8395 35.8703L30.8238 35.8748L26.9515 34.8285L26.704 32.0554H23.2131L23.7003 37.515L30.8226 39.4928L30.8395 39.4883V35.8703Z" fill="#EBEBEB"/>
<path d="M35.1235 30.1699L34.705 34.8262L30.8271 35.8725V39.4905L37.9552 37.515L38.008 36.9277L38.6122 30.1699H35.1235Z" fill="white"/>
<path d="M30.8305 19.8019V23.2793H22.4313L22.3615 22.4974L22.2029 20.7345L22.1196 19.8019H30.8305ZM30.8181 26.8399V30.3173H26.9943L26.9245 29.5354L26.767 27.7725L26.6838 26.8399H30.8181Z" fill="#EBEBEB"/>
</svg>
