<svg width="61" height="61" viewBox="0 0 61 61" fill="none" xmlns="http://www.w3.org/2000/svg">
<rect x="0.272705" y="0.818237" width="60" height="60" rx="10" fill="#383E45"/>
<g clip-path="url(#clip0_190_2073)">
<path d="M24.2727 48.8182C27.5847 48.8182 30.2727 46.1302 30.2727 42.8182V36.8182H24.2727C20.9607 36.8182 18.2727 39.5062 18.2727 42.8182C18.2727 46.1302 20.9607 48.8182 24.2727 48.8182Z" fill="#0ACF83"/>
<path d="M18.2727 30.8182C18.2727 27.5062 20.9607 24.8182 24.2727 24.8182H30.2727V36.8182H24.2727C20.9607 36.8182 18.2727 34.1302 18.2727 30.8182Z" fill="#A259FF"/>
<path d="M18.2727 18.8182C18.2727 15.5062 20.9607 12.8182 24.2727 12.8182H30.2727V24.8182H24.2727C20.9607 24.8182 18.2727 22.1302 18.2727 18.8182Z" fill="#F24E1E"/>
<path d="M30.2727 12.8182H36.2727C39.5847 12.8182 42.2727 15.5062 42.2727 18.8182C42.2727 22.1302 39.5847 24.8182 36.2727 24.8182H30.2727V12.8182Z" fill="#FF7262"/>
<path d="M42.2727 30.8182C42.2727 34.1302 39.5847 36.8182 36.2727 36.8182C32.9607 36.8182 30.2727 34.1302 30.2727 30.8182C30.2727 27.5062 32.9607 24.8182 36.2727 24.8182C39.5847 24.8182 42.2727 27.5062 42.2727 30.8182Z" fill="#1ABCFE"/>
</g>
<defs>
<clipPath id="clip0_190_2073">
<rect width="24" height="36" fill="white" transform="translate(18.2727 12.8182)"/>
</clipPath>
</defs>
</svg>
