<?xml version="1.0" encoding="utf-8"?>
<!-- Generator: Adobe Illustrator 22.1.0, SVG Export Plug-In . SVG Version: 6.00 Build 0)  -->
<svg version="1.1" id="Layer_1" xmlns="http://www.w3.org/2000/svg" xmlns:xlink="http://www.w3.org/1999/xlink" x="0px" y="0px">
<rect x="0.272705" y="0.818237" width="60" height="60" rx="10" fill="#383E45"/>
<g clip-path="url(#clip0_190_2073)">
<path class="st0" d="M1169.4,891l-246.7,229.7l-229-462.1L812,392.9c29.9-53,78.8-53.7,108.7,0L1169.4,891z" fill="#A259FF"/>
<path class="st1" d="M922.8,1120.6L0,1978.9L693.8,658.6L922.8,1120.6z"/>
<path class="st2" d="M1439.9,539.7c44.2-42.1,89.7-27.9,101.2,31.9L1781,1967.3L985.3,2445c-27.9,15.6-101.9,21.7-101.9,21.7
	s-67.3-8.2-93.1-22.4L0,1978.9L1439.9,539.7z"/>
 </g>
 <defs>
<clipPath id="clip0_190_2073">
<rect width="24" height="36" fill="white" transform="translate(18.2727 12.8182)"/>
</clipPath>
</defs>

<path class="st0" d="M693.8,658.6L0,1978.9L309.2,49.1c11.6-59.8,45.5-65.9,76.1-12.9L693.8,658.6z"/>
</svg>
