<svg width="61" height="61" viewBox="0 0 61 61" fill="none" xmlns="http://www.w3.org/2000/svg">
<rect x="0.0908203" y="0.818237" width="60" height="60" rx="10" fill="#383E45"/>
<g clip-path="url(#clip0_190_2068)">
<path fill-rule="evenodd" clip-rule="evenodd" d="M30.0908 12.8182C20.1458 12.8182 12.0908 20.8732 12.0908 30.8182C12.0908 38.7832 17.2433 45.5107 24.3983 47.8957C25.2983 48.0532 25.6358 47.5132 25.6358 47.0407C25.6358 46.6132 25.6133 45.1957 25.6133 43.6882C21.0908 44.5207 19.9208 42.5857 19.5608 41.5732C19.3583 41.0557 18.4808 39.4582 17.7158 39.0307C17.0858 38.6932 16.1858 37.8607 17.6933 37.8382C19.1108 37.8157 20.1233 39.1432 20.4608 39.6832C22.0808 42.4057 24.6683 41.6407 25.7033 41.1682C25.8608 39.9982 26.3333 39.2107 26.8508 38.7607C22.8458 38.3107 18.6608 36.7582 18.6608 29.8732C18.6608 27.9157 19.3583 26.2957 20.5058 25.0357C20.3258 24.5857 19.6958 22.7407 20.6858 20.2657C20.6858 20.2657 22.1933 19.7932 25.6358 22.1107C27.0758 21.7057 28.6058 21.5032 30.1358 21.5032C31.6658 21.5032 33.1958 21.7057 34.6358 22.1107C38.0783 19.7707 39.5858 20.2657 39.5858 20.2657C40.5758 22.7407 39.9458 24.5857 39.7658 25.0357C40.9133 26.2957 41.6108 27.8932 41.6108 29.8732C41.6108 36.7807 37.4033 38.3107 33.3983 38.7607C34.0508 39.3232 34.6133 40.4032 34.6133 42.0907C34.6133 44.4982 34.5908 46.4332 34.5908 47.0407C34.5908 47.5132 34.9283 48.0757 35.8283 47.8957C39.4016 46.6893 42.5066 44.3927 44.7063 41.3293C46.906 38.2658 48.0897 34.5897 48.0908 30.8182C48.0908 20.8732 40.0358 12.8182 30.0908 12.8182Z" fill="white"/>
</g>
<defs>
<clipPath id="clip0_190_2068">
<rect width="36" height="36" fill="white" transform="translate(12.0908 12.8182)"/>
</clipPath>
</defs>
</svg>
