<svg width="60" height="60" viewBox="0 0 60 60" fill="none" xmlns="http://www.w3.org/2000/svg">
<rect width="60" height="60" rx="7" fill="#383E45"/>
<path d="M18.6397 42.6011L16.1118 14.25H43.8881L41.3568 42.5966L29.9831 45.75L18.6397 42.6011Z" fill="#E44F26"/>
<path d="M30 43.3403L39.1913 40.7921L41.3535 16.5686H30V43.3403Z" fill="#F1662A"/>
<path d="M30 27.0829H25.3988L25.0815 23.5222H30V20.0449H21.2812L21.3645 20.9786L22.2184 30.5602H30V27.0829ZM30 36.1132L29.9843 36.1177L26.112 35.0726L25.8645 32.2995H22.3736L22.8608 37.758L29.9843 39.7357L30 39.7312V36.1132Z" fill="#EBEBEB"/>
<path d="M29.9875 27.0829V30.5602H34.2693L33.8665 35.0704L29.9875 36.1166V39.7346L37.1167 37.758L37.1684 37.1707L37.9852 28.0166L38.0707 27.0829H29.9875ZM29.9875 20.0449V23.5222H38.3868L38.4565 22.7415L38.6152 20.9786L38.6984 20.0449H29.9875Z" fill="white"/>
</svg>
