<svg width="61" height="60" viewBox="0 0 61 60" fill="none" xmlns="http://www.w3.org/2000/svg">
<rect x="0.63623" width="60" height="60" rx="10" fill="#383E45"/>
<g clip-path="url(#clip0_190_2035)">
<path d="M12.6362 12H48.6362V48H12.6362V12Z" fill="#F7DF1E"/>
<path d="M22.1019 42.0842L24.8568 40.4169C25.3884 41.3593 25.8718 42.1566 27.0316 42.1566C28.1432 42.1566 28.8442 41.7218 28.8442 40.0304V28.5275H32.2272V40.0782C32.2272 43.5821 30.1733 45.1771 27.1765 45.1771C24.4702 45.1771 22.8993 43.7755 22.1018 42.0839L22.1019 42.0842ZM34.0648 41.7217L36.8193 40.1268C37.5445 41.311 38.487 42.1809 40.1543 42.1809C41.5562 42.1809 42.45 41.4801 42.45 40.5134C42.45 39.3535 41.5317 38.9426 39.9851 38.2662L39.1395 37.9034C36.6987 36.8646 35.0797 35.5596 35.0797 32.8048C35.0797 30.2673 37.0128 28.334 40.0336 28.334C42.1843 28.334 43.7309 29.0833 44.8424 31.0406L42.2082 32.7323C41.6281 31.6933 41.0001 31.2825 40.0335 31.2825C39.0426 31.2825 38.4143 31.9108 38.4143 32.7323C38.4143 33.7472 39.0426 34.1583 40.4925 34.7866L41.3382 35.149C44.214 36.3816 45.833 37.638 45.833 40.4652C45.833 43.5103 43.4407 45.1775 40.2267 45.1775C37.0853 45.1775 35.0553 43.6793 34.0646 41.7218" fill="black"/>
</g>
<defs>
<clipPath id="clip0_190_2035">
<rect width="36" height="36" fill="white" transform="translate(12.6362 12)"/>
</clipPath>
</defs>
</svg>
