<svg width="60" height="60" viewBox="0 0 60 60" fill="none" xmlns="http://www.w3.org/2000/svg">
<rect width="60" height="60" rx="10" fill="#383E45"/>
<path d="M28.7809 25.0419V24.9419H28.6809H20.382V25.0419H20.282V37.6482V37.7482H20.382H28.7673H28.8673V37.6482V36.9772V36.8772H28.7673H21.2429V31.5333H28.2313H28.3313V31.4333V30.7623V30.6623H28.2313H21.2429V25.8129H28.6809H28.7809V25.7129V25.0419ZM30.3878 24.9843L30.358 24.9419H30.3061H29.4764H29.4245H29.4242V25.0419V25.0421L29.3428 25.0995L33.624 31.168L29.0318 37.59L28.9188 37.7482H29.1132H30.0124H30.0639L30.0938 37.7062L34.2133 31.9237L38.3158 37.706L38.3457 37.7482H38.3973H39.3138H39.5074L39.3953 37.5903L34.8366 31.1671L43.7222 18.0561L43.5603 17.9389L38.1281 24.9808L38.128 24.9808L38.1261 24.9834L34.2144 30.4134L30.3878 24.9843ZM39.5424 25.7129V25.8129H39.6424H39.6427H43.8818V37.6479V37.7479H43.9818H44.7427H44.8427V37.6479V25.8129H49.0993H49.1993V25.7129V25.0419V24.9419H49.0993H39.6424H39.5424V25.0419V25.7129ZM11.0346 24.987L11.0049 24.9419H10.951H10V25.0419H9.9V37.6482V37.7482H10H10.7606H10.8603L10.8606 37.6485L10.8942 26.3213L18.5615 37.7041L18.5615 37.7041L18.564 37.7075L23.9828 45.0593L24.1468 44.9451L11.0346 24.987ZM50.2775 36.0334L50.275 35.9359H50.1775H49.8706H49.7706H49.7703V36.0359H49.6706C49.6706 36.2943 49.7628 36.5149 49.928 36.6704C50.0926 36.8255 50.3221 36.9088 50.5845 36.9088C50.8624 36.9088 51.0971 36.8233 51.262 36.6525C51.4265 36.4822 51.5098 36.2393 51.5098 35.9473V34.0235V33.9235H51.4098H50.9954H50.8954V34.0235V35.9455C50.8954 36.0821 50.8616 36.1711 50.813 36.2251C50.7659 36.2775 50.6923 36.3108 50.5809 36.3108C50.4841 36.3108 50.4102 36.2803 50.3608 36.2343C50.3117 36.1886 50.2797 36.1213 50.2775 36.0334ZM51.8517 36.0117V36.1117H51.8621C51.8979 36.341 52.0124 36.5331 52.1889 36.6712C52.3876 36.8265 52.6584 36.9088 52.9712 36.9088C53.3037 36.9088 53.5856 36.8231 53.7864 36.6578C53.9893 36.4908 54.1 36.25 54.1 35.9624C54.1 35.7377 54.037 35.5511 53.8891 35.4043C53.7452 35.2616 53.531 35.1669 53.2502 35.1002C53.25 35.1002 53.2498 35.1001 53.2497 35.1001L52.9568 35.0269L52.9557 35.0266C52.7855 34.9861 52.6809 34.9416 52.6199 34.8932C52.5657 34.8501 52.5439 34.8029 52.5439 34.7356C52.5439 34.6464 52.5822 34.5743 52.6534 34.5216C52.7272 34.467 52.8409 34.4304 52.9897 34.4304C53.1289 34.4304 53.2385 34.4655 53.3153 34.5211C53.3909 34.5757 53.4399 34.6537 53.4552 34.7527L53.4683 34.8375H53.554H53.9574H54.0627L54.0573 34.7323C54.0299 34.2076 53.5757 33.8573 52.9951 33.8573C52.686 33.8573 52.4188 33.9428 52.227 34.1021C52.0336 34.2627 51.9238 34.4929 51.9238 34.7641C51.9238 34.9835 51.9851 35.169 52.1213 35.315C52.2552 35.4585 52.452 35.5534 52.7035 35.6133C52.7036 35.6133 52.7037 35.6133 52.7038 35.6134L53.0472 35.6979L53.0478 35.698C53.2197 35.7392 53.3294 35.7872 53.3949 35.8406C53.4548 35.8893 53.4799 35.9438 53.4799 36.0171C53.4799 36.1003 53.4388 36.1761 53.3577 36.2346C53.2753 36.2939 53.1526 36.3335 53.0028 36.3335C52.67 36.3335 52.4871 36.1848 52.4617 35.9982L52.4499 35.9117H52.3626H51.9517V36.0084L51.8517 36.0114V36.0117ZM48.6507 36.494C48.6507 36.7038 48.8085 36.8744 49.0228 36.8746H49.0231C49.2393 36.8745 49.3948 36.7033 49.3948 36.494C49.3948 36.2843 49.2392 36.1131 49.0228 36.1131C48.8085 36.1131 48.6507 36.2839 48.6507 36.494Z" fill="white" stroke="white" stroke-width="0.2"/>
</svg>
