<svg width="60" height="60" viewBox="0 0 60 60" fill="none" xmlns="http://www.w3.org/2000/svg">
<rect width="60" height="60" rx="10" fill="#383E45"/>
<path d="M29.7132 45.5934C29.5482 45.5934 29.3843 45.5501 29.2396 45.4669L27.7322 44.5753C27.507 44.4495 27.6169 44.405 27.6911 44.3794C27.9913 44.2744 28.0523 44.2506 28.3727 44.0688C28.4064 44.0496 28.4505 44.0564 28.4849 44.0768L29.643 44.7633C29.6848 44.7859 29.7442 44.7859 29.7829 44.7633L34.2984 42.1594C34.3402 42.1357 34.3673 42.0871 34.3673 42.0374V36.8318C34.3673 36.7799 34.3402 36.7336 34.2975 36.7076L29.7838 34.1059C29.742 34.0811 29.6866 34.0811 29.6448 34.1059L25.1321 36.7076C25.0883 36.7324 25.0605 36.781 25.0605 36.8307V42.0363C25.0605 42.086 25.0877 42.1334 25.1306 42.1571L26.3671 42.8708C27.0385 43.2061 27.4488 42.8109 27.4488 42.4134V37.2756C27.4488 37.2022 27.5065 37.1457 27.5799 37.1457H28.1518C28.223 37.1457 28.2818 37.2022 28.2818 37.2756V42.4157C28.2818 43.31 27.7935 43.8238 26.9447 43.8238C26.6836 43.8238 26.4779 43.8238 25.9037 43.5415L24.7192 42.8595C24.4264 42.6901 24.2456 42.3739 24.2456 42.0363V36.8307C24.2456 36.4919 24.4264 36.1757 24.7192 36.0086L29.2392 33.4036C29.5251 33.2421 29.9049 33.2421 30.1886 33.4036L34.7029 36.0098C34.9945 36.178 35.1765 36.4931 35.1765 36.8318V42.0374C35.1765 42.375 34.9945 42.6901 34.7029 42.8595L30.1886 45.4645C30.0439 45.5481 29.88 45.591 29.7127 45.591" fill="#689F63"/>
<path d="M31.108 42.0064C29.1323 42.0064 28.718 41.1003 28.718 40.3404C28.718 40.2681 28.7763 40.2105 28.8488 40.2105H29.432C29.4964 40.2105 29.5507 40.2574 29.5609 40.3209C29.649 40.9147 29.9112 41.2141 31.1059 41.2141C32.0576 41.2141 32.4623 40.9994 32.4623 40.4952C32.4623 40.205 32.347 39.9893 30.8686 39.8447C29.6321 39.7228 28.868 39.4507 28.868 38.4626C28.868 37.5525 29.6366 37.0105 30.924 37.0105C32.3696 37.0105 33.0862 37.5118 33.1766 38.5891C33.18 38.6263 33.1664 38.6625 33.1416 38.6896C33.1167 38.7155 33.0817 38.7314 33.0455 38.7314H32.4589C32.3979 38.7314 32.3447 38.6884 32.3323 38.6297C32.191 38.0053 31.8497 37.8054 30.9217 37.8054C29.883 37.8054 29.7621 38.1668 29.7621 38.4378C29.7621 38.7664 29.9045 38.8623 31.306 39.0475C32.694 39.2316 33.3529 39.4913 33.3529 40.4658C33.3529 41.4482 32.5324 42.0117 31.1014 42.0117L31.108 42.0064ZM36.6013 36.491H36.7528C36.8771 36.491 36.9009 36.4041 36.9009 36.3533C36.9009 36.22 36.8093 36.22 36.7585 36.22H36.6025L36.6013 36.491ZM36.4171 36.0642H36.7528C36.8681 36.0642 37.0941 36.0642 37.0941 36.3216C37.0941 36.5012 36.9789 36.5384 36.9099 36.561C37.0444 36.5701 37.0535 36.6581 37.0715 36.7824C37.0806 36.8603 37.0953 36.9946 37.1224 37.0398H36.9156C36.9099 36.9946 36.8783 36.7462 36.8783 36.7327C36.8647 36.6773 36.8455 36.6502 36.7765 36.6502H36.6059V37.0409H36.4171V36.0642ZM36.0136 36.5497C36.0136 36.954 36.3403 37.2815 36.7415 37.2815C37.1461 37.2815 37.4728 36.9472 37.4728 36.5497C37.4728 36.1444 37.1416 35.8225 36.7404 35.8225C36.3448 35.8225 36.0125 36.1398 36.0125 36.5486L36.0136 36.5497ZM37.6129 36.552C37.6129 37.0308 37.2207 37.4215 36.7426 37.4215C36.2679 37.4215 35.8723 37.0353 35.8723 36.552C35.8723 36.0597 36.277 35.6825 36.7426 35.6825C37.2117 35.6825 37.6118 36.0608 37.6118 36.552" fill="#689F63"/>
<path fill-rule="evenodd" clip-rule="evenodd" d="M15.7304 25.2249C15.7304 25.0171 15.6207 24.8263 15.4413 24.723L10.6539 21.9711C10.573 21.9237 10.4825 21.8988 10.3907 21.8954H10.3412C10.2495 21.8988 10.1589 21.9237 10.0767 21.9711L5.28958 24.723C5.11122 24.8268 5 25.0177 5 25.2254L5.01051 32.6375C5.01051 32.7403 5.06363 32.8363 5.15406 32.8871C5.24222 32.9413 5.35299 32.9413 5.44115 32.8871L8.28718 31.2588C8.46689 31.1519 8.57653 30.9631 8.57653 30.7574V27.2947C8.57653 27.0881 8.68617 26.8972 8.86532 26.7945L10.077 26.0973C10.1669 26.0454 10.2657 26.0196 10.3663 26.0196C10.4653 26.0196 10.5664 26.0451 10.6539 26.0972L11.865 26.7941C12.0442 26.8969 12.1543 27.0877 12.1543 27.2944V30.7568C12.1543 30.9623 12.2654 31.1521 12.4442 31.2582L15.2884 32.8854C15.3777 32.9384 15.4888 32.9384 15.5778 32.8854C15.6655 32.8346 15.7211 32.7386 15.7211 32.6358L15.7304 25.2249ZM38.321 29.084C38.321 29.1356 38.2935 29.1834 38.2486 29.2089L36.6043 30.1559C36.5597 30.1815 36.5045 30.1815 36.46 30.1559L34.8154 29.2089C34.7702 29.1833 34.7431 29.1355 34.7431 29.084V27.1874C34.7431 27.1357 34.7702 27.0881 34.8143 27.0621L36.4577 26.1136C36.5029 26.0876 36.5583 26.0876 36.6035 26.1136L38.2481 27.0621C38.2933 27.0881 38.3204 27.1357 38.3204 27.1874L38.321 29.084ZM38.7652 15.0366C38.6754 14.9867 38.5662 14.988 38.4776 15.0396C38.3895 15.0916 38.335 15.1864 38.335 15.2892V22.629C38.335 22.7012 38.2966 22.7679 38.2339 22.804C38.1718 22.8401 38.0944 22.8401 38.0316 22.804L36.8324 22.1139C36.6538 22.0107 36.4339 22.0107 36.2546 22.1139L31.4656 24.8752C31.2867 24.9779 31.1763 25.1688 31.1763 25.3743V30.8983C31.1763 31.105 31.2867 31.2947 31.4656 31.3986L36.2546 34.1617C36.4334 34.2645 36.6536 34.2645 36.833 34.1617L41.6219 31.3974C41.8005 31.2935 41.9113 31.1038 41.9113 30.8972V17.13C41.9113 16.9204 41.7971 16.7277 41.614 16.6252L38.7652 15.0366ZM54.7126 27.1375C54.8905 27.0343 55 26.8437 55 26.6382V25.2994C55 25.0934 54.8904 24.9034 54.7121 24.7997L49.9537 22.04C49.7739 21.9361 49.5535 21.9361 49.3738 22.04L44.586 24.8009C44.4063 24.9048 44.2966 25.0945 44.2966 25.3011V30.8229C44.2966 31.0307 44.4085 31.2226 44.5882 31.3254L49.3456 34.0343C49.5208 34.1348 49.7355 34.136 49.913 34.0377L52.7907 32.4399C52.8811 32.3891 52.9387 32.2931 52.9387 32.1892C52.9387 32.0853 52.8833 31.9882 52.7929 31.9374L47.9757 29.1754C47.8853 29.1246 47.8299 29.0286 47.8299 28.9258V27.1936C47.8299 27.0902 47.8841 26.9949 47.9745 26.9434L49.4733 26.0796C49.5626 26.0276 49.6722 26.0276 49.7615 26.0796L51.2614 26.9434C51.3507 26.9942 51.4061 27.0902 51.4061 27.193V28.5548C51.4061 28.6575 51.4614 28.7535 51.5507 28.8055C51.64 28.8563 51.7508 28.8563 51.8401 28.8043L54.7126 27.1375Z" fill="white"/>
<path fill-rule="evenodd" clip-rule="evenodd" d="M49.5935 26.8792C49.6274 26.8592 49.6699 26.8592 49.7043 26.8792L50.6232 27.4088C50.6575 27.4286 50.6786 27.4652 50.6786 27.5047V28.5651C50.6786 28.6046 50.6575 28.6412 50.6232 28.661L49.7043 29.1906C49.6699 29.2106 49.6274 29.2106 49.5935 29.1906L48.6752 28.661C48.6401 28.6412 48.6187 28.6046 48.6187 28.5651V27.5047C48.6187 27.4652 48.639 27.4286 48.674 27.4088L49.5935 26.8792Z" fill="#689F63"/>
<path d="M33.6025 24.3471L20.1844 17.7763L13.3044 31.7981L26.7222 38.3692L33.6025 24.3471Z" fill="url(#paint0_linear_198_48)"/>
<path d="M12.4331 26.2906L21.9076 39.1017L34.4379 29.8529L24.9628 17.0421L12.4331 26.2906Z" fill="url(#paint1_linear_198_48)"/>
<path d="M18.418 21.9918V34.1227H28.7807V21.9918H18.418Z" fill="url(#paint2_linear_198_48)"/>
<defs>
<linearGradient id="paint0_linear_198_48" x1="6.24072" y1="17.7763" x2="38.6973" y2="17.7763" gradientUnits="userSpaceOnUse">
<stop offset="0.3" stop-color="#3E863D"/>
<stop offset="0.5" stop-color="#55934F"/>
<stop offset="0.8" stop-color="#5AAD45"/>
</linearGradient>
<linearGradient id="paint1_linear_198_48" x1="2.39893" y1="17.0421" x2="25.2399" y2="17.0421" gradientUnits="userSpaceOnUse">
<stop offset="0.57" stop-color="#3E863D"/>
<stop offset="0.72" stop-color="#619857"/>
<stop offset="1" stop-color="#76AC64"/>
</linearGradient>
<linearGradient id="paint2_linear_198_48" x1="18.8636" y1="21.9918" x2="28.6149" y2="21.9918" gradientUnits="userSpaceOnUse">
<stop offset="0.16" stop-color="#6BBF47"/>
<stop offset="0.38" stop-color="#79B461"/>
<stop offset="0.47" stop-color="#75AC64"/>
<stop offset="0.7" stop-color="#659E5A"/>
<stop offset="0.9" stop-color="#3E863D"/>
</linearGradient>
</defs>
</svg>
