<svg width="60" height="60" viewBox="0 0 60 60" fill="none" xmlns="http://www.w3.org/2000/svg">
<rect width="60" height="60" rx="10" fill="#383E45"/>
<path d="M50.3987 30.0041C50.3987 27.3262 47.0473 24.7883 41.9089 23.2145C43.0947 17.9739 42.5677 13.8045 40.2455 12.4697C39.7103 12.1566 39.0845 12.0082 38.401 12.0082V13.8457C38.7798 13.8457 39.0845 13.9199 39.3397 14.06C40.4596 14.7027 40.9455 17.1499 40.5667 20.2976C40.4761 21.0721 40.3279 21.8878 40.1467 22.7201C38.5327 22.3246 36.7705 22.0197 34.9178 21.8219C33.8061 20.2976 32.6533 18.9133 31.4922 17.702C34.1767 15.2053 36.6964 13.8375 38.4092 13.8375V12C36.1447 12 33.1803 13.615 30.1829 16.4166C27.1855 13.6315 24.2211 12.033 21.9566 12.033V13.8705C23.6611 13.8705 26.1891 15.23 28.8736 17.7102C27.7208 18.9215 26.5679 20.2976 25.4727 21.8219C23.6117 22.0197 21.8495 22.3246 20.2356 22.7283C20.0462 21.9043 19.9062 21.1051 19.8074 20.3387C19.4203 17.1911 19.8979 14.7439 21.0096 14.0929C21.2566 13.9446 21.5778 13.8787 21.9566 13.8787V12.0412C21.2649 12.0412 20.639 12.1895 20.0956 12.5026C17.7817 13.8375 17.2629 17.9986 18.4569 23.2227C13.335 24.8048 10 27.3344 10 30.0041C10 32.6821 13.3515 35.22 18.4898 36.7938C17.3041 42.0343 17.8311 46.2037 20.1532 47.5386C20.6885 47.8517 21.3143 48 22.006 48C24.2705 48 27.2349 46.385 30.2323 43.5834C33.2297 46.3685 36.1941 47.967 38.4586 47.967C39.1503 47.967 39.7762 47.8187 40.3196 47.5056C42.6336 46.1707 43.1523 42.0096 41.9583 36.7855C47.0637 35.2117 50.3987 32.6738 50.3987 30.0041ZM39.6773 24.5081C39.3727 25.5711 38.9939 26.667 38.5657 27.7629C38.2281 27.1037 37.874 26.4445 37.487 25.7853C37.1082 25.1261 36.7047 24.4834 36.3012 23.8572C37.4705 24.0302 38.5986 24.2444 39.6773 24.5081ZM35.9059 33.2836C35.2636 34.396 34.6049 35.4507 33.9214 36.4312C32.6944 36.5383 31.451 36.596 30.1994 36.596C28.956 36.596 27.7125 36.5383 26.4938 36.4395C25.8104 35.4589 25.1434 34.4125 24.5011 33.3083C23.8752 32.2289 23.307 31.133 22.7883 30.0288C23.2988 28.9247 23.8752 27.8206 24.4928 26.7411C25.1351 25.6287 25.7939 24.574 26.4774 23.5935C27.7043 23.4864 28.9477 23.4287 30.1994 23.4287C31.4428 23.4287 32.6862 23.4864 33.9049 23.5853C34.5884 24.5658 35.2554 25.6123 35.8977 26.7164C36.5235 27.7958 37.0917 28.8917 37.6105 29.9959C37.0917 31.1 36.5235 32.2042 35.9059 33.2836ZM38.5657 32.2124C39.0103 33.3165 39.3891 34.4207 39.7021 35.4919C38.6233 35.7555 37.487 35.978 36.3094 36.1511C36.7129 35.5166 37.1164 34.8656 37.4952 34.1982C37.874 33.539 38.2281 32.8716 38.5657 32.2124ZM30.2158 41.0043C29.45 40.2133 28.6842 39.3317 27.9266 38.3676C28.6677 38.4005 29.4253 38.4253 30.1911 38.4253C30.9652 38.4253 31.731 38.4088 32.4803 38.3676C31.7392 39.3317 30.9734 40.2133 30.2158 41.0043ZM24.0893 36.1511C22.92 35.978 21.7919 35.7638 20.7132 35.5001C21.0178 34.4372 21.3966 33.3413 21.8248 32.2454C22.1624 32.9046 22.5165 33.5637 22.9036 34.2229C23.2906 34.8821 23.6858 35.5248 24.0893 36.1511ZM30.1747 19.0039C30.9405 19.7949 31.7063 20.6766 32.4639 21.6406C31.7228 21.6077 30.9652 21.583 30.1994 21.583C29.4253 21.583 28.6595 21.5995 27.9102 21.6406C28.6513 20.6766 29.4171 19.7949 30.1747 19.0039ZM24.0811 23.8572C23.6776 24.4916 23.2741 25.1426 22.8953 25.81C22.5165 26.4692 22.1624 27.1284 21.8248 27.7876C21.3802 26.6835 21.0014 25.5793 20.6885 24.5081C21.7672 24.2527 22.9036 24.0302 24.0811 23.8572ZM16.6288 34.1735C13.7138 32.9293 11.8281 31.2978 11.8281 30.0041C11.8281 28.7105 13.7138 27.0707 16.6288 25.8347C17.337 25.5299 18.111 25.258 18.9098 25.0025C19.3792 26.6175 19.9968 28.2985 20.7626 30.0206C20.005 31.7345 19.3956 33.4072 18.9345 35.014C18.1193 34.7585 17.3452 34.4784 16.6288 34.1735ZM21.059 45.9483C19.9391 45.3056 19.4533 42.8583 19.8321 39.7107C19.9226 38.9361 20.0709 38.1204 20.252 37.2882C21.866 37.6837 23.6282 37.9886 25.481 38.1863C26.5926 39.7107 27.7455 41.095 28.9065 42.3062C26.2221 44.8029 23.7023 46.1707 21.9895 46.1707C21.619 46.1625 21.306 46.0883 21.059 45.9483ZM40.5914 39.6695C40.9784 42.8171 40.5008 45.2644 39.3891 45.9153C39.1421 46.0636 38.821 46.1295 38.4422 46.1295C36.7376 46.1295 34.2096 44.77 31.5251 42.2898C32.678 41.0785 33.8308 39.7024 34.926 38.1781C36.787 37.9803 38.5492 37.6754 40.1632 37.2717C40.3526 38.1039 40.5008 38.9032 40.5914 39.6695ZM43.7617 34.1735C43.0535 34.4784 42.2795 34.7503 41.4807 35.0057C41.0113 33.3907 40.3938 31.7098 39.6279 29.9876C40.3855 28.2737 40.9949 26.6011 41.456 24.9943C42.2712 25.2497 43.0453 25.5299 43.7699 25.8347C46.685 27.079 48.5707 28.7105 48.5707 30.0041C48.5624 31.2978 46.6767 32.9375 43.7617 34.1735Z" fill="#61DAFB"/>
<path d="M30.1912 33.7697C32.2695 33.7697 33.9544 32.0838 33.9544 30.0041C33.9544 27.9244 32.2695 26.2385 30.1912 26.2385C28.1128 26.2385 26.428 27.9244 26.428 30.0041C26.428 32.0838 28.1128 33.7697 30.1912 33.7697Z" fill="#61DAFB"/>
</svg>
