<svg width="60" height="60" viewBox="0 0 60 60" fill="none" xmlns="http://www.w3.org/2000/svg">
<rect width="60" height="60" rx="10" fill="#383E45"/>
<g clip-path="url(#clip0_198_6)">
<path d="M45.2012 32.6603C43.778 32.6676 42.541 33.0104 41.5053 33.5171C41.1251 32.7645 40.7451 32.0939 40.6782 31.6021C40.6035 31.0284 40.5142 30.6781 40.6035 29.9925C40.693 29.307 41.0954 28.3308 41.0879 28.2563C41.0805 28.1818 40.9984 27.8316 40.1788 27.8242C39.3592 27.8167 38.6512 27.9806 38.5693 28.1967C38.4873 28.4128 38.3308 28.9046 38.2265 29.4112C38.0849 30.1565 36.5872 32.8166 35.7304 34.21C35.4546 33.6662 35.2162 33.1892 35.1639 32.8092C35.0894 32.2355 34.9999 31.8852 35.0894 31.1997C35.1789 30.5141 35.5813 29.5381 35.5738 29.4634C35.5663 29.389 35.4843 29.0387 34.6647 29.0313C33.8449 29.0238 33.137 29.1878 33.0552 29.4038C32.9732 29.6201 32.8837 30.1266 32.7124 30.6185C32.5409 31.1104 30.5514 35.5515 30.0298 36.6989C29.819 37.1633 29.5979 37.623 29.3666 38.0775C29.3666 38.0775 29.3591 38.0999 29.3368 38.1371C29.2641 38.2797 29.1896 38.4213 29.1133 38.5619V38.5692C29.0015 38.7706 28.8823 38.9567 28.8227 38.9567C28.7779 38.9567 28.6959 38.4203 28.8375 37.69C29.1356 36.1476 29.8435 33.7482 29.8361 33.6662C29.8361 33.6215 29.9702 33.2042 29.3741 32.988C28.7928 32.772 28.5842 33.1296 28.532 33.1296C28.4799 33.1296 28.4425 33.2563 28.4425 33.2563C28.4425 33.2563 29.091 30.5589 27.2056 30.5589C26.0284 30.5589 24.4039 31.848 23.5991 33.0104C22.6843 33.5082 21.7702 34.0075 20.8569 34.5082C20.4175 34.7541 19.9628 35.0001 19.5381 35.231C19.5082 35.2013 19.4785 35.1639 19.4486 35.1341C17.1684 32.6975 12.9509 30.9761 13.1297 27.705C13.1968 26.5127 13.6066 23.383 21.2296 19.5828C27.5037 16.4903 32.4963 17.3472 33.3607 19.2474C34.5976 21.9598 30.6856 26.9971 24.2027 27.7272C21.7288 28.003 20.4322 27.0492 20.1044 26.6915C19.7616 26.3189 19.7094 26.2965 19.5827 26.3711C19.3741 26.483 19.5082 26.8183 19.5827 27.0119C19.7765 27.5185 20.5737 28.4128 21.9225 28.8525C23.1147 29.2399 26.0134 29.4561 29.5231 28.0999C33.45 26.5797 36.5201 22.3547 35.6185 18.8153C34.7168 15.2236 28.7556 14.0388 23.1147 16.0432C19.7616 17.2356 16.1252 19.1133 13.5097 21.5574C10.4024 24.4634 9.91053 26.9896 10.1117 28.0478C10.8347 31.8033 16.0135 34.2474 18.085 36.0581C17.9806 36.1177 17.8836 36.17 17.8018 36.2147C16.766 36.7288 12.8167 38.7928 11.8331 40.9762C10.7154 43.45 12.0121 45.2237 12.8689 45.4619C15.5291 46.1997 18.2638 44.8734 19.7317 42.6825C21.1997 40.4918 21.0209 37.6453 20.3428 36.3413C20.3353 36.3264 20.328 36.3114 20.3129 36.2965C20.5812 36.1401 20.8569 35.9761 21.1252 35.8197C21.6183 35.5282 22.1177 35.2474 22.623 34.9775C22.3696 35.6706 22.1833 36.4977 22.0939 37.69C21.9821 39.091 22.5558 40.909 23.3084 41.6243C23.6438 41.9375 24.0387 41.9449 24.2921 41.9449C25.1714 41.9449 25.5664 41.2146 26.006 40.3502C26.5425 39.2922 27.0268 38.0627 27.0268 38.0627C27.0268 38.0627 26.4233 41.386 28.0627 41.386C28.6587 41.386 29.2623 40.611 29.5306 40.2161V40.2235C29.5306 40.2235 29.5455 40.2011 29.5753 40.149C29.6349 40.0522 29.6722 39.9924 29.6722 39.9924V39.9777C29.9106 39.5603 30.4472 38.614 31.2445 37.0417C32.2728 35.0149 33.2639 32.4814 33.2639 32.4814C33.2639 32.4814 33.3534 33.0999 33.6587 34.1282C33.8377 34.7318 34.21 35.3949 34.5082 36.0357C34.2698 36.3712 34.1207 36.5573 34.1207 36.5573L34.1282 36.5648C33.9344 36.8181 33.7258 37.0938 33.4948 37.3623C32.6825 38.3308 31.714 39.4413 31.5797 39.7615C31.4231 40.1415 31.4605 40.4173 31.7587 40.6409C31.9747 40.8048 32.3621 40.8271 32.7571 40.8048C33.4874 40.7526 34.0015 40.5738 34.2548 40.4621C34.6498 40.3205 35.1118 40.1043 35.5439 39.7839C36.3413 39.1952 36.8255 38.3532 36.7809 37.243C36.7586 36.632 36.5574 36.0209 36.3114 35.447C36.3861 35.3428 36.453 35.2385 36.5276 35.1341C37.7869 33.2936 38.7631 31.2742 38.7631 31.2742C38.7631 31.2742 38.8526 31.8926 39.158 32.9211C39.3071 33.4427 39.6126 34.009 39.8808 34.5603C38.696 35.5217 37.9657 36.6393 37.7049 37.3696C37.2356 38.7258 37.6005 39.3368 38.2936 39.4783C38.6065 39.5455 39.0536 39.3964 39.3815 39.2548C39.7988 39.1207 40.2906 38.8898 40.7601 38.5469C41.5575 37.9583 42.3249 37.1385 42.2802 36.0284C42.2578 35.5217 42.1237 35.0223 41.9374 34.5379C42.9433 34.1208 44.24 33.8898 45.8941 34.0835C49.4412 34.5007 50.1416 36.7138 50.0073 37.6454C49.8733 38.5767 49.1281 39.0835 48.8823 39.2399C48.6363 39.3965 48.5544 39.4486 48.5768 39.5603C48.6065 39.7243 48.7257 39.7169 48.9344 39.687C49.2251 39.6349 50.7974 38.9344 50.8644 37.2205C50.9762 35.0298 48.8897 32.6379 45.2012 32.6603ZM17.8391 41.8853C16.6616 43.1669 15.0224 43.6512 14.3145 43.2415C13.5545 42.8017 13.8525 40.909 15.2981 39.553C16.1773 38.7258 17.31 37.9582 18.0626 37.4888C18.2339 37.3845 18.4874 37.2355 18.7929 37.0492C18.845 37.0193 18.8749 37.0045 18.8749 37.0045L19.0537 36.8926C19.5827 38.83 19.0761 40.5365 17.8391 41.8853ZM26.4084 36.0581C25.9985 37.0567 25.1417 39.6126 24.6201 39.471C24.1729 39.3518 23.8971 37.4143 24.5306 35.4993C24.851 34.5379 25.529 33.3904 25.924 32.9434C26.5648 32.228 27.2728 31.9894 27.4441 32.2803C27.6603 32.6603 26.6617 35.4322 26.4084 36.0581ZM33.4799 39.4411C33.3085 39.5306 33.1447 39.5902 33.07 39.5455C33.0179 39.5156 33.1447 39.3964 33.1447 39.3964C33.1447 39.3964 34.0314 38.4427 34.3815 38.0104C34.5829 37.7571 34.8211 37.4591 35.0746 37.1237V37.2205C35.0746 38.3607 33.9716 39.1282 33.4798 39.4411H33.4799ZM38.9344 38.1967C38.8077 38.1072 38.8301 37.8092 39.2548 36.8777C39.4188 36.5126 39.8061 35.9017 40.4695 35.313C40.5439 35.5514 40.5962 35.7825 40.5887 35.9985C40.5812 37.4367 39.553 37.9732 38.9344 38.1967Z" fill="#CD6799"/>
</g>
<defs>
<clipPath id="clip0_198_6">
<rect width="40.9091" height="30.6818" fill="white" transform="translate(10 15)"/>
</clipPath>
</defs>
</svg>
