<svg width="61" height="61" viewBox="0 0 61 61" fill="none" xmlns="http://www.w3.org/2000/svg">
<rect x="0.45459" y="0.818237" width="60" height="60" rx="10" fill="#383E45"/>
<path d="M40.2046 26.3332C39.0797 25.9458 38.0867 25.2491 37.3396 24.3232C36.5162 23.2916 35.4677 22.4619 34.2743 21.8977C33.081 21.3336 31.7744 21.0498 30.4546 21.0682C28.6791 20.9425 26.9215 21.4901 25.5316 22.602C24.1417 23.7139 23.2217 25.3085 22.9546 27.0682C23.4806 26.1881 24.2723 25.4975 25.2157 25.0959C26.1591 24.6943 27.2056 24.6023 28.2046 24.8332C29.3276 25.2319 30.319 25.9326 31.0696 26.8582C31.8975 27.8816 32.948 28.7027 34.1411 29.2589C35.3342 29.8152 36.6384 30.092 37.9546 30.0682C39.73 30.1939 41.4877 29.6463 42.8776 28.5344C44.2675 27.4226 45.1875 25.828 45.4546 24.0682C44.9381 24.9589 44.149 25.6599 43.2036 26.0677C42.2583 26.4756 41.2069 26.5686 40.2046 26.3332ZM20.7046 33.8032C21.8295 34.1906 22.8225 34.8873 23.5696 35.8132C24.393 36.8449 25.4415 37.6745 26.6348 38.2387C27.8282 38.8028 29.1347 39.0866 30.4546 39.0682C32.23 39.1939 33.9877 38.6463 35.3776 37.5345C36.7675 36.4226 37.6875 34.828 37.9546 33.0682C37.4286 33.9483 36.6369 34.6389 35.6935 35.0405C34.7501 35.4422 33.7036 35.5341 32.7046 35.3032C31.5816 34.9045 30.5902 34.2038 29.8396 33.2782C29.0094 32.2573 27.9585 31.4381 26.766 30.8821C25.5734 30.326 24.2702 30.0478 22.9546 30.0682C21.1791 29.9425 19.4215 30.4901 18.0316 31.602C16.6417 32.7139 15.7217 34.3085 15.4546 36.0682C15.9711 35.1776 16.7602 34.4766 17.7055 34.0687C18.6509 33.6609 19.7023 33.5678 20.7046 33.8032Z" fill="#33A9DC"/>
</svg>
