<svg width="61" height="61" viewBox="0 0 61 61" fill="none" xmlns="http://www.w3.org/2000/svg">
<rect x="0.818115" y="0.818237" width="60" height="60" rx="10" fill="#383E45"/>
<g clip-path="url(#clip0_190_2053)">
<path d="M12.8181 30.0682V48.0682H48.8181V12.0682H12.8181V30.0682Z" fill="#007ACC"/>
<path d="M20.7792 30.1877L20.7678 31.6619H25.4534V44.9763H28.7677V31.6619H33.4535V30.2163C33.4535 29.4161 33.4363 28.7476 33.4135 28.7304C33.3964 28.7077 30.5448 28.6961 27.0878 28.7019L20.7962 28.7191L20.7792 30.1876V30.1877ZM41.8666 28.6772C42.7808 28.9057 43.4781 29.3114 44.118 29.9743C44.4495 30.3287 44.9408 30.9743 44.9809 31.1285C44.9922 31.1742 43.4266 32.2257 42.4781 32.8143C42.4438 32.8371 42.3065 32.6886 42.1522 32.46C41.6894 31.7857 41.2037 31.4943 40.4608 31.4428C39.3696 31.3686 38.6666 31.9399 38.6723 32.8942C38.6723 33.1743 38.7123 33.34 38.8266 33.5685C39.0666 34.0658 39.5123 34.3629 40.9123 34.9686C43.4894 36.0771 44.5922 36.8085 45.2781 37.8486C46.0438 39.0086 46.2152 40.8601 45.6951 42.2372C45.1238 43.7343 43.7067 44.7514 41.7122 45.0885C41.0952 45.1971 39.6324 45.1799 38.9695 45.06C37.5238 44.8029 36.1523 44.0885 35.3066 43.1514C34.9752 42.7858 34.3294 41.8314 34.3695 41.7629C34.3866 41.74 34.5351 41.6486 34.7008 41.5514C34.8608 41.46 35.4666 41.1114 36.038 40.78L37.0723 40.18L37.2894 40.5001C37.5923 40.9627 38.2551 41.5971 38.6552 41.8086C39.8037 42.4143 41.3809 42.3286 42.158 41.6314C42.4895 41.3286 42.6266 41.0143 42.6266 40.5514C42.6266 40.1343 42.5751 39.9515 42.358 39.6372C42.0781 39.2371 41.5066 38.9 39.8837 38.1972C38.0266 37.397 37.2266 36.9001 36.4952 36.1114C36.0723 35.6544 35.6722 34.9229 35.5066 34.3114C35.3695 33.8028 35.335 32.5286 35.4437 32.0143C35.8266 30.22 37.1809 28.9685 39.1351 28.5971C39.7694 28.4772 41.2437 28.5229 41.8666 28.6772Z" fill="white"/>
</g>
<defs>
<clipPath id="clip0_190_2053">
<rect width="36" height="36" fill="white" transform="translate(12.8181 12.0682)"/>
</clipPath>
</defs>
</svg>
