<svg width="45" height="45" viewBox="0 0 45 45" fill="none" xmlns="http://www.w3.org/2000/svg">
<circle cx="22.5" cy="22.5" r="21.5" stroke="#F9B220" stroke-width="2"/>
<g clip-path="url(#clip0_190_1967)">
<path d="M9.78247 32.1301C9.78247 27.3542 9.78247 22.5775 9.78247 17.8016C9.82517 17.8251 9.87175 17.8413 9.90992 17.873C13.2644 20.6762 16.6175 23.4811 19.972 26.2843C21.4186 27.4929 22.9376 27.4978 24.3823 26.2908C27.6979 23.5225 31.0116 20.75 34.3259 17.9792C34.3971 17.92 34.4695 17.8632 34.5763 17.7781C34.5763 17.9014 34.5763 17.9776 34.5763 18.0539C34.5763 22.6075 34.5763 27.1603 34.575 31.714C34.575 31.8446 34.5724 31.9784 34.5537 32.1066C34.3408 33.5942 33.4267 34.5497 32.2065 34.5505C27.3401 34.5529 22.4731 34.5513 17.6067 34.5513C15.7745 34.5513 13.9424 34.5562 12.1109 34.5489C11.308 34.5456 10.6442 34.1465 10.1959 33.307C10.0076 32.9574 9.91704 32.5251 9.78247 32.1301Z" fill="#F9B220"/>
<path d="M9.78247 13.6729C9.81999 13.5205 9.85558 13.368 9.89569 13.2163C10.1952 12.0888 11.0401 11.2972 11.9899 11.2534C12.0546 11.2501 12.1193 11.2509 12.1833 11.2509C18.8495 11.2509 25.5157 11.2501 32.1819 11.2517C33.1653 11.2517 33.9099 11.7757 34.3518 12.8902C34.8545 14.1572 34.5375 15.6059 33.5845 16.417C32.4439 17.3879 31.2937 18.3393 30.1466 19.2981C27.9806 21.1085 25.8133 22.9189 23.6467 24.7294C22.6012 25.6029 21.7595 25.6029 20.7134 24.7286C17.5601 22.0924 14.4127 19.4457 11.2485 16.8307C10.5608 16.2596 9.97267 15.6391 9.78247 14.583C9.78247 14.2797 9.78247 13.9763 9.78247 13.6729Z" fill="#F9B220"/>
</g>
<defs>
<clipPath id="clip0_190_1967">
<rect width="24.8061" height="23.3036" fill="white" transform="translate(9.78247 11.25)"/>
</clipPath>
</defs>
</svg>
