<svg width="45" height="45" viewBox="0 0 45 45" fill="none" xmlns="http://www.w3.org/2000/svg">
<circle cx="22.5" cy="22.5" r="21.5" stroke="#F9B220" stroke-width="2"/>
<g clip-path="url(#clip0_190_1954)">
<path d="M22.1728 35.2174C21.4649 34.295 20.77 33.4071 20.0935 32.505C18.4833 30.3595 17.0038 28.1283 15.76 25.7484C14.9585 24.215 14.2257 22.6461 13.8857 20.9373C13.2813 17.8989 14.1237 15.2747 16.328 13.1235C18.1452 11.3507 20.3798 10.5858 22.9022 10.7942C25.3576 10.9972 27.3595 12.1115 28.8931 14.0447C29.8988 15.3126 30.4642 16.7663 30.6485 18.3651C30.7938 19.625 30.5757 20.8457 30.1775 22.0401C29.6125 23.7347 28.8221 25.3259 27.939 26.8719C26.2955 29.7497 24.3794 32.4426 22.3288 35.0423C22.2932 35.0883 22.2518 35.1296 22.1728 35.2174ZM25.8026 19.3396C25.8915 17.4669 24.5025 15.7343 22.4461 15.5643C20.5327 15.4061 18.742 16.9092 18.5864 18.7987C18.4174 20.853 19.8566 22.6162 21.867 22.7828C23.9889 22.9594 25.7175 21.3533 25.8026 19.3396Z" fill="#F9B220"/>
</g>
<defs>
<clipPath id="clip0_190_1954">
<rect width="16.9981" height="24.4565" fill="white" transform="translate(13.6956 10.7609)"/>
</clipPath>
</defs>
</svg>
