<svg width="45" height="45" viewBox="0 0 45 45" fill="none" xmlns="http://www.w3.org/2000/svg">
<circle cx="22.5" cy="22.5" r="21.5" stroke="#F9B220" stroke-width="2"/>
<g clip-path="url(#clip0_190_1959)">
<path d="M16.0445 10.7609C16.8095 10.988 17.3354 11.5378 17.7538 12.1714C18.3395 13.044 18.8894 13.9405 19.4034 14.8489C19.6544 15.2912 19.7978 15.7813 19.8217 16.2953C19.8576 17.0005 19.6305 17.6101 19.1165 18.0763C18.5905 18.5544 18.0526 19.0087 17.4908 19.439C16.8095 19.9649 16.5943 20.6343 16.7497 21.4591C16.929 22.3676 17.3952 23.1445 17.9211 23.8856C18.9133 25.2842 20.0249 26.5751 21.3518 27.6868C21.9614 28.2008 22.6069 28.655 23.4197 28.8343C24.0891 28.9777 24.6628 28.8104 25.1529 28.3442C25.6191 27.89 26.0972 27.4358 26.5873 27.0174C27.4599 26.2643 28.4401 26.1807 29.4681 26.7186C30.2211 27.113 30.8666 27.6509 31.5001 28.2008C32.0739 28.7028 32.6596 29.1929 33.1138 29.8145C33.7713 30.7229 33.7354 31.5238 32.9106 32.2769C32.1337 32.9941 31.3926 33.7471 30.4482 34.2611C29.0497 35.0261 27.5555 35.325 25.9657 35.1815C23.9695 35.0022 22.2124 34.2014 20.5867 33.0897C18.5188 31.6912 16.7975 29.934 15.2197 28.0334C13.8451 26.3839 12.6378 24.6267 11.7771 22.6425C11.1675 21.2439 10.7731 19.8095 10.7611 18.2795C10.7491 15.7574 11.6576 13.6416 13.6538 12.0518C13.8331 11.9084 14.0005 11.7649 14.1558 11.6096C14.5623 11.251 14.9806 10.9043 15.5185 10.7609C15.6978 10.7609 15.8652 10.7609 16.0445 10.7609Z" fill="#F9B220"/>
</g>
<defs>
<clipPath id="clip0_190_1959">
<rect width="22.807" height="24.4565" fill="white" transform="translate(10.761 10.7609)"/>
</clipPath>
</defs>
</svg>
