<svg width="28" height="28" viewBox="0 0 28 28" fill="none" xmlns="http://www.w3.org/2000/svg">
<circle cx="14" cy="14" r="14" fill="#F9AF20"/>
<path fill-rule="evenodd" clip-rule="evenodd" d="M11.1528 8.59328C11.5169 8.5264 11.8843 8.47883 12.2534 8.45079C12.3369 8.44441 12.3951 8.43057 12.4311 8.37192C12.4918 8.2733 12.5999 8.23534 12.7505 8.22414C13.1556 8.19397 13.5574 8.19179 13.9634 8.21963C14.1593 8.23317 14.2898 8.28279 14.3649 8.41143C14.3945 8.46199 14.4455 8.48065 14.5218 8.4861C14.6812 8.4973 14.8397 8.51441 14.9977 8.53541C15.2028 8.56279 15.406 8.59748 15.619 8.63232C15.5822 8.50865 15.5251 8.40397 15.4607 8.30114C15.2148 7.90868 14.8205 7.64128 14.2339 7.53285C13.7931 7.4515 13.347 7.45865 12.9002 7.48448C12.6205 7.50065 12.3536 7.55603 12.1045 7.65185C11.5853 7.85097 11.33 8.19101 11.1527 8.59328H11.1528ZM5.90853 8.95199C6.08493 9.01852 6.25048 9.11078 6.39978 9.22577C6.7262 9.47512 6.95087 9.77254 7.15903 10.077C7.3904 10.4151 7.57254 10.7684 7.74424 11.1263C7.77836 11.1057 7.78085 11.0809 7.78817 11.057C7.87574 10.7739 7.97857 10.4937 8.11023 10.2193C8.34378 9.73319 8.65633 9.28363 9.22533 8.95339C9.28251 8.92025 9.27784 8.89708 9.23562 8.85803C9.05535 8.69128 8.86075 8.53448 8.63374 8.4007C8.45425 8.29508 8.24796 8.24157 8.01347 8.24545C7.49869 8.25385 7.03033 8.37503 6.58628 8.55299C6.33045 8.6555 6.09238 8.77543 5.90853 8.95199V8.95199ZM12.6813 8.6009L12.628 8.60868C12.62 8.60697 12.6118 8.60308 12.6042 8.60339C11.9298 8.64025 11.2608 8.69952 10.6114 8.84481C9.91587 9.00037 9.37911 9.30261 9.00611 9.75605C8.70915 10.1173 8.5468 10.5164 8.39878 10.9181C8.24406 11.3377 8.13656 11.7655 8.04105 12.1942C7.8868 12.8863 7.76963 13.5821 7.65932 14.2782C7.58015 14.7859 7.5066 15.2944 7.4387 15.8037C7.3407 16.5265 7.2536 17.2496 7.24706 17.9769C7.24098 18.6148 7.26061 19.2509 7.53218 19.8667C7.71027 20.2705 8.01674 20.6025 8.53246 20.8237C9.06688 21.053 9.65178 21.1768 10.2507 21.27C11.1377 21.4079 12.039 21.4534 12.9437 21.4638C13.9159 21.475 14.8873 21.458 15.8519 21.3561C16.5591 21.2815 17.2526 21.1679 17.9089 20.954C18.5055 20.7596 18.9408 20.4566 19.1776 20.0062C19.4129 19.5593 19.4933 19.0931 19.5207 18.6215C19.5826 17.5559 19.4405 16.4972 19.2912 15.4394C19.1817 14.6631 19.0628 13.8873 18.919 13.1136C18.831 12.6404 18.7376 12.1681 18.615 11.6991C18.4724 11.1547 18.3034 10.6157 18.0106 10.1011C17.654 9.47388 17.0541 9.03101 16.1433 8.84108C15.0115 8.60525 13.8529 8.54817 12.6813 8.6009V8.6009ZM19.8102 15.1615C19.8107 15.2232 19.8133 15.285 19.8351 15.3452L19.907 15.8415C19.8967 15.873 19.9018 15.9025 19.9225 15.9427C19.9394 15.901 19.9761 15.8773 19.9646 15.8425L20.1827 15.0655C20.1978 15.0369 20.2122 15.0082 20.2042 14.9768C20.2465 14.9059 20.2561 14.829 20.2821 14.7551C20.4404 14.3076 20.5483 13.8529 20.6498 13.3975C20.7617 12.8963 20.8582 12.393 20.9823 11.8934C21.135 11.2789 21.2036 10.6614 21.174 10.0384C21.1629 9.80785 21.1478 9.57592 21.0624 9.33637C20.9912 9.37665 20.9289 9.40683 20.8745 9.44339C20.6237 9.61248 20.4457 9.82108 20.2863 10.037C19.8323 10.6519 19.5377 11.3118 19.2625 11.9768C19.2485 12.0105 19.2566 12.0427 19.2646 12.0762C19.407 12.6794 19.5104 13.2864 19.6083 13.894C19.6764 14.3165 19.7429 14.739 19.8102 15.1615V15.1615ZM5.64334 9.49814C5.59785 9.63005 5.60018 9.76492 5.59987 9.89932C5.59832 10.5099 5.68993 11.1148 5.79993 11.7193C5.89544 12.2446 6.02819 12.7648 6.1575 13.2856C6.28178 13.7915 6.41153 14.2961 6.54671 14.7992C6.67665 15.2781 6.72355 15.7631 6.77294 16.2483C6.77652 16.2838 6.76827 16.3219 6.80223 16.3572C6.80878 16.3473 6.81719 16.3401 6.81812 16.3323C6.90659 15.6213 7.00819 14.912 7.12288 14.2048C7.23475 13.5152 7.34148 12.8253 7.49915 12.1403C7.51988 12.0508 7.54543 11.9634 7.49884 11.8696C7.40785 11.6857 7.33914 11.4963 7.25158 11.3115C7.01989 10.8227 6.77325 10.3378 6.40337 9.89279C6.25364 9.71234 6.09861 9.53283 5.85882 9.40434C5.80429 9.37043 5.74508 9.31023 5.68011 9.33139C5.62605 9.34912 5.64568 9.42301 5.63524 9.47232C5.63368 9.48041 5.64038 9.48943 5.64334 9.49814V9.49814ZM20.0866 8.52794C19.58 8.35143 19.0467 8.26355 18.5102 8.26817C18.3551 8.26838 18.2033 8.31291 18.0728 8.3965C17.8506 8.53852 17.6962 8.71648 17.5639 8.90625C17.5368 8.94514 17.566 8.96085 17.6002 8.98139C17.7514 9.07131 17.892 9.17768 18.0197 9.29857C18.4586 9.71577 18.6829 10.2013 18.868 10.699C18.9244 10.8509 18.9748 11.0038 19.0344 11.175C19.2158 10.8026 19.3909 10.4491 19.6206 10.112C19.8998 9.70208 20.2002 9.3023 20.7237 9.02183L20.7916 8.99041L20.8505 8.96677C20.9051 8.95245 20.872 8.93799 20.8505 8.92352C20.8398 8.89241 20.8116 8.87063 20.7779 8.8515C20.7502 8.81308 20.7058 8.78725 20.6548 8.76625C20.5411 8.68894 20.4087 8.63248 20.2681 8.58519C20.21 8.56217 20.1569 8.53074 20.0866 8.52794V8.52794Z" fill="#19191B"/>
</svg>
