<svg width="28" height="28" viewBox="0 0 28 28" fill="none" xmlns="http://www.w3.org/2000/svg">
<circle cx="14" cy="14" r="14" fill="#F9AF20"/>
<g clip-path="url(#clip0_88_738)">
<path d="M18.4821 19.2975H16.4043V16.0756C16.4043 15.3073 16.3904 14.3182 15.3236 14.3182C14.2414 14.3182 14.0758 15.1553 14.0758 16.0197V19.2973H11.9979V12.6717H13.9927V13.5772H14.0206C14.2202 13.2392 14.5087 12.9612 14.8553 12.7727C15.2018 12.5842 15.5936 12.4924 15.9887 12.5069C18.0947 12.5069 18.483 13.8785 18.483 15.6628L18.4821 19.2975ZM9.65345 11.766C9.41496 11.7661 9.18182 11.6961 8.9835 11.5649C8.78518 11.4338 8.63061 11.2473 8.53931 11.0292C8.44801 10.8111 8.42408 10.571 8.47056 10.3394C8.51705 10.1078 8.63185 9.89504 8.80046 9.72804C8.96906 9.56103 9.18389 9.44728 9.41778 9.40117C9.65168 9.35507 9.89412 9.37867 10.1145 9.46899C10.3348 9.55932 10.5232 9.71231 10.6557 9.90863C10.7882 10.1049 10.859 10.3358 10.859 10.5719C10.8591 10.7287 10.8279 10.8839 10.7673 11.0288C10.7067 11.1737 10.618 11.3053 10.506 11.4162C10.3941 11.5271 10.2611 11.615 10.1149 11.6751C9.96858 11.7351 9.81179 11.766 9.65345 11.766V11.766ZM10.6924 19.2975H8.61236V12.6717H10.6924V19.2975ZM19.518 7.46762H7.56826C7.29703 7.46459 7.03567 7.5683 6.84164 7.75597C6.6476 7.94363 6.53676 8.1999 6.53345 8.46845V20.3496C6.53664 20.6183 6.64742 20.8747 6.84145 21.0625C7.03548 21.2504 7.2969 21.3543 7.56826 21.3515H19.518C19.7899 21.3548 20.052 21.2512 20.2468 21.0634C20.4416 20.8755 20.5531 20.6188 20.5569 20.3496V8.46759C20.553 8.19851 20.4414 7.94195 20.2466 7.75429C20.0518 7.56663 19.7897 7.46321 19.518 7.46676" fill="#19191B"/>
</g>
<defs>
<clipPath id="clip0_88_738">
<rect width="16.5846" height="14" fill="white" transform="translate(5.6001 7.4668)"/>
</clipPath>
</defs>
</svg>
