<svg width="28" height="28" viewBox="0 0 28 28" fill="none" xmlns="http://www.w3.org/2000/svg">
<circle cx="14" cy="14" r="14" fill="#F9AF20"/>
<path d="M11.0218 21.4668C17.5277 21.4668 21.0855 16.0812 21.0855 11.4109C21.0855 11.2579 21.0824 11.1057 21.0755 10.9541C21.7662 10.4552 22.3664 9.83264 22.8399 9.12395C22.2061 9.40542 21.5241 9.59491 20.8087 9.68035C21.5389 9.2428 22.0995 8.55066 22.364 7.72554C21.6806 8.13036 20.9238 8.42458 20.118 8.58343C19.4726 7.89647 18.5537 7.4668 17.5362 7.4668C15.5829 7.4668 13.999 9.04958 13.999 11.0006C13.999 11.2779 14.03 11.5477 14.0907 11.8064C11.151 11.6586 8.54433 10.2523 6.79978 8.11382C6.49602 8.63611 6.32086 9.24282 6.32086 9.89019C6.32086 11.1164 6.9453 12.1988 7.89487 12.8321C7.31457 12.8142 6.76944 12.655 6.29298 12.3901C6.29246 12.4049 6.29246 12.4194 6.29246 12.4352C6.29246 14.1468 7.51166 15.5759 9.1301 15.8997C8.83288 15.9807 8.52017 16.0241 8.19742 16.0241C7.96986 16.0241 7.74815 16.0017 7.53266 15.9604C7.98296 17.3646 9.28872 18.3865 10.8368 18.4151C9.62622 19.3632 8.10122 19.9279 6.4438 19.9279C6.15865 19.9279 5.87695 19.9117 5.6001 19.879C7.16548 20.8816 9.02423 21.4666 11.022 21.4666" fill="#19191B"/>
</svg>
