<svg width="18" height="18" viewBox="0 0 18 18" fill="none" xmlns="http://www.w3.org/2000/svg">
<path d="M18 2.14415C18 6.71458 18 11.285 18 15.8555C17.9878 15.894 17.9723 15.9315 17.9644 15.971C17.7666 16.9329 17.2013 17.5717 16.275 17.8906C16.1386 17.9375 15.9952 17.9643 15.8555 18C11.2852 18 6.71484 18 2.14453 18C2.11172 17.9887 2.08031 17.9732 2.04656 17.9662C1.04391 17.768 0.396562 17.1734 0.08625 16.2049C0.0529688 16.1016 0.0285938 15.9954 0 15.8902C0 11.2968 0 6.70284 0 2.10893C0.0117188 2.08356 0.0295313 2.05961 0.0342188 2.03284C0.255938 0.832811 1.25156 0.000542337 2.47172 0.000542337C6.83391 7.26594e-05 11.1956 -0.000397018 15.5578 0.000542337C16.6158 0.00101201 17.5547 0.683454 17.8809 1.68809C17.9292 1.83745 17.9606 1.99198 18 2.14415ZM9.62063 7.98224C9.59953 7.95406 9.58781 7.94561 9.58734 7.93669C9.58406 7.78451 9.585 7.63233 9.57984 7.48016C9.57094 7.21385 9.45187 7.09596 9.1875 7.09502C8.67188 7.09314 8.15672 7.09408 7.64109 7.09455C7.3275 7.09502 7.20656 7.21479 7.20656 7.52901C7.20609 9.7487 7.20609 11.9689 7.20656 14.1886C7.20656 14.4957 7.33781 14.624 7.64813 14.6249C8.12859 14.6258 8.60859 14.6254 9.08906 14.6254C9.46641 14.6254 9.57234 14.5216 9.57234 14.1501C9.57281 13.0139 9.56766 11.8773 9.57469 10.7411C9.5775 10.3142 9.67219 9.90464 9.91266 9.54251C10.1817 9.13718 10.5689 8.98031 11.0456 9.02117C11.5444 9.06391 11.8898 9.32693 12.0131 9.80318C12.1055 10.1606 12.1467 10.5396 12.1528 10.9097C12.1697 12.0046 12.1575 13.1003 12.158 14.1956C12.158 14.499 12.2794 14.6197 12.585 14.6207C13.1063 14.6225 13.6275 14.6221 14.1487 14.6207C14.4586 14.6197 14.5889 14.4906 14.5884 14.1825C14.5875 12.9641 14.6006 11.7453 14.5748 10.5279C14.5641 10.0103 14.5036 9.48803 14.4066 8.97937C14.2884 8.36221 14.0011 7.82161 13.4752 7.43977C12.9952 7.09174 12.4448 6.98512 11.8669 6.97948C10.9706 6.97056 10.1686 7.17722 9.62063 7.98224ZM6.12937 10.8586C6.12937 9.75763 6.12984 8.6567 6.12891 7.55531C6.12844 7.21291 6.00703 7.09361 5.66203 7.09267C5.18203 7.09174 4.70156 7.09127 4.22156 7.09267C3.89578 7.09361 3.76125 7.227 3.76125 7.5492C3.76078 9.75105 3.76078 11.9534 3.76125 14.1552C3.76125 14.4816 3.90422 14.624 4.23281 14.6249C4.67203 14.6258 5.11125 14.6254 5.55047 14.6254C6.03609 14.6254 6.12937 14.5338 6.12937 14.0561C6.12937 12.9904 6.12937 11.9247 6.12937 10.8586ZM6.47391 4.92276C6.48047 4.07406 5.80547 3.38269 4.96219 3.37424C4.12594 3.36578 3.42609 4.05245 3.41391 4.89364C3.40172 5.72263 4.08984 6.42996 4.91531 6.43607C5.78297 6.44311 6.46734 5.77899 6.47391 4.92276Z" fill="#19191B"/>
</svg>
